<?xml version="1.0" encoding="utf-8"?>
<!-- Generator: Adobe Illustrator 17.1.0, SVG Export Plug-In . SVG Version: 6.00 Build 0)  -->
<!DOCTYPE svg PUBLIC "-//W3C//DTD SVG 1.1//EN" "http://www.w3.org/Graphics/SVG/1.1/DTD/svg11.dtd">
<svg version="1.1" id="Layer_1" xmlns="http://www.w3.org/2000/svg" xmlns:xlink="http://www.w3.org/1999/xlink" x="0px" y="0px"
	 viewBox="0 0 517.143 122.143" enable-background="new 0 0 517.143 122.143" xml:space="preserve">
<g>
	<path fill="#D71921" d="M184.223,64.682c1.147,2.505,4.762,9.434,5.855,11.01c0.402,0.587,1.089,1.623,3.27,4.227h-9.584
		c0.401-1.428,0.401-1.917,0.401-2.162c0-2.603-1.032-4.768-1.779-6.343l-2.583-5.359c-5.221-0.15-8.55-0.198-15.437-0.248
		l-2.412,4.179c-3.213,5.559-3.901,7.478-4.132,9.933h-8.034c5.278-6.095,5.452-6.341,11.649-16.52l12.11-20.747L184.223,64.682z
		 M178.255,62.567l-5.622-11.902l-6.429,11.506L178.255,62.567z"/>
	<path fill="#D71921" d="M245.785,58.925c-1.721-0.734-3.673-1.13-5.68-1.13c-2.699,0-5.511,0.985-6.372,2.561
		c-0.228,0.539-0.228,1.125-0.228,2.751l0.171,9.882c0.115,3.736,0.344,4.866,1.32,6.93h-6.771c0.688-2.112,1.375-3.983,1.319-7.721
		l-0.171-11.256c-0.057-2.951-0.288-3.788-2.124-6.782h6.256c-0.059,0.587-0.172,3.094-0.172,4.667
		c0.803-0.737,4.935-3.492,5.739-4.128c1.09-0.293,2.123-0.637,3.845-0.637c1.492,0,2.41,0.243,3.385,0.489L245.785,58.925z"/>
	<path fill="#D71921" d="M284.008,72.741c0,4.379,0.632,5.95,1.147,7.178h-6.541c0.63-1.869,1.262-3.738,1.262-8.994V60.894
		c0-1.575,0-3.592-1.262-6.687h6.772c-0.976,3.541-1.379,4.963-1.379,9.142V72.741z M285.329,47.123
		c0,2.216-1.607,3.249-3.215,3.249c-1.664,0-2.927-1.232-2.927-3.146c0-2.998,2.811-2.998,3.042-2.998
		C283.377,44.228,285.329,44.814,285.329,47.123z"/>
	<path fill="#D71921" d="M333.414,57.254l-4.075-0.198c-4.365-0.196-7.52,1.38-8.781,2.114l1.32-5.011
		c8.204,0,11.879,0.195,17.79,0.294l-8.265,14.011c-0.802,1.376-4.475,7.326-5.107,8.606c2.294-0.052,8.092-0.2,10.158-0.494
		c1.091-0.15,1.551-0.345,3.041-1.032l-1.376,4.374h-18.425l5.051-8.162L333.414,57.254z"/>
	<path fill="#D71921" d="M399.008,66.794c0,1.968-0.227,6.832-6.025,11.306c-2.005,1.525-5.852,2.26-8.321,2.26
		c-6.14,0-13.546-4.179-13.546-13.418c0-9.445,8.612-13.177,13.833-13.177C394.88,53.765,399.008,60.648,399.008,66.794z
		 M378.979,58.436c-2.578,2.162-3.269,5.209-3.269,7.914c0,4.672,2.527,10.667,9.984,10.667c1.724,0,4.134-0.148,5.338-1.228
		c2.87-2.653,3.561-5.805,3.561-8.26c0-5.31-3.846-10.326-11.596-10.326C380.415,57.204,379.44,57.991,378.979,58.436z"/>
	<path fill="#D71921" d="M440.146,58.682l3.787-3.397c1.496-0.586,3.216-1.325,5.798-1.325c2.292,0,4.993,0.982,6.257,3.392
		c0.746,1.573,0.746,3.59,0.746,5.215v9.24c0,5.211,0.858,6.734,1.609,8.112h-6.948c0.572-1.428,1.147-2.901,1.147-7.671v-6.293
		c0-5.208-0.055-8.555-5.107-8.555c-2.41,0-5.279,0.792-6.943,2.413c-0.346,0.343-0.346,0.493-0.346,2.114v11.504
		c0,3.787,0.286,4.767,1.147,6.488h-6.827c0.628-1.13,1.547-2.799,1.547-6.684V61.676c0-4.324-0.458-5.452-2.355-7.469h6.488V58.682
		z"/>
	<path fill="#D71921" d="M510.434,72.247c0,5.118,0.287,5.509,2.009,7.671h-6.197v-3.292c-0.805,0.493-4.016,2.706-4.765,3.049
		c-0.518,0.243-1.893,0.243-2.524,0.243c-5.165,0-7.061-3.097-7.061-5.998c0-4.67,3.615-5.952,4.997-6.391
		c6.312-2.164,7.63-2.653,9.64-3.689c0.113-3.192-0.059-7.323-5.107-7.323c-2.355,0-3.906,0.882-6.716,2.751l0.859-4.569
		c1.15-0.293,3.615-0.935,6.942-0.935c6.026,0,8.209,3.292,8.209,7.618L510.434,72.247z M506.359,68.267
		c-0.859-0.048-1.665-0.098-3.215-0.098c-0.572,0-5.22,0.05-5.512,0.295c-0.513,0.542-1.546,3.686-1.546,4.72
		c0,0.394,0,3.392,4.42,3.392c2.406,0,4.188-0.443,5.738-0.836L506.359,68.267z"/>
	<path fill="#153F90" d="M151.089,97.263c0-3.071-0.722-4.933-1.032-5.965c0.894-0.057,1.549-0.118,2.686-0.118
		c4.753,0,10.468,0.384,14.394,4.692c1.894,2.098,2.581,4.461,2.581,6.616c0,5.754-5.13,10.865-13.428,10.865h-6.232
		c0.55-1.389,1.032-2.658,1.032-6.734V97.263z M154.946,106.087c0,2.514,0,3.339,0.206,5.11c7.679-0.652,10.022-5.522,10.022-9.003
		c0-3.101-1.827-7.975-10.022-8.946c-0.206,1.355-0.206,2.951-0.206,4.04V106.087z"/>
	<path fill="#153F90" d="M182.591,112.676c-1.102,0.32-2.308,0.677-3.995,0.677c-5.75,0-7.196-3.983-7.196-7.468
		c0-5.138,2.996-7.975,7.23-7.975c2.962,0,5.304,1.535,5.82,4.49c0.24,1.239,0.206,1.889,0.206,3.574l-9.504,0.175
		c0.105,1.061,0.413,4.665,4.409,4.665c1.446,0,2.685-0.416,4.718-1.212L182.591,112.676z M182.42,104.17
		c0.101-2.803-1.103-4.399-3.585-4.399c-2.58,0-3.512,1.771-3.786,4.399H182.42z"/>
	<path fill="#153F90" d="M192.124,97.852c-0.102,1.417-0.136,1.919-0.136,3.158c1.446-1.771,2.721-3.249,5.062-3.249
		c3.409,0,6.267,2.662,6.267,7.293c0,5.286-3.65,7.766-6.577,7.766c-2.239,0-4.03-1.357-4.752-1.889v2.894
		c0,2.156,0.171,2.833,1.032,4.22h-5.544c0.757-1.094,1.032-1.564,1.032-3.87v-11.631c0-2.979-0.551-3.892-1.032-4.693H192.124z
		 M191.988,109.929c0.722,0.293,1.548,0.616,2.79,0.616c1.996,0,4.923-1.03,4.923-5.461c0-4.219-3.339-4.872-4.546-4.872
		c-1.479,0-2.445,0.619-3.167,1.094V109.929z"/>
	<path fill="#153F90" d="M207.787,98.473l2.275-0.415c0.619-0.116,1.341-0.116,1.583-0.116c3.34,0,4.751,1.625,5.128,2.185
		c0.519,0.796,0.519,1.212,0.519,2.244l0.138,8.828c0,0.35,0.31,1.242,0.654,2.155h-4.064v-2.155
		c-1.309,0.823-1.686,1.094-2.961,2.007c-0.206,0.03-0.896,0.148-1.446,0.148c-1.411,0-4.545-1.062-4.545-3.576
		c0-2.653,3.993-4.163,6.336-4.954c1.722-0.564,1.895-0.682,2.616-1.128v-0.795c0-0.766-0.067-1.003-0.206-1.239
		c-0.482-0.769-1.929-1.474-3.582-1.474c-1.342,0-2.305,0.441-3.406,1.002L207.787,98.473z M214.02,106.594h-4.614
		c-0.377,0.766-0.652,1.412-0.652,2.33c0,1.709,1.619,2.273,3.408,2.273c0.826,0,1.275-0.118,1.858-0.266V106.594z"/>
	<path fill="#153F90" d="M226.621,97.88c-0.172,0.798-0.172,1.122-0.172,2.128v1.889c1.068-1.771,2.305-3.927,5.267-3.927
		c0.76,0,1.102,0.148,1.653,0.384l-0.582,3.718c-0.932-0.735-1.413-1.119-2.756-1.119c-1.894,0-2.893,0.795-3.581,1.355v7.411
		c0,2.244,0.275,2.747,0.893,3.633h-5.267c0.723-0.973,0.893-1.477,0.893-2.956v-9.828c0-0.562,0-1.212-0.585-2.689H226.621z"/>
	<path fill="#153F90" d="M245.005,98.237v1.95h-4.578v5.55c0,3.48,0,3.864,0.17,4.276c0.207,0.532,1.138,1.273,2.275,1.273
		c0.585,0,1.101-0.089,2.34-0.325l-1.963,2.155c-1.17,0.206-1.962,0.325-2.962,0.325c-2.721,0-3.441-1.714-3.441-2.538
		c0-0.655,0.102-1.185,0.102-2.155v-8.562h-2.34c0.516-0.534,1.066-1.004,5.819-5.199v3.249H245.005z"/>
	<path fill="#153F90" d="M251.683,97.852v3.395c0.243-0.325,1.274-1.828,1.551-2.126c1.273-1.325,3.202-1.325,3.408-1.325
		c3.408,0,4.132,2.628,4.339,3.451c0.206-0.325,1.136-1.859,1.378-2.153c1.138-1.214,2.721-1.298,3.479-1.298
		c2.616,0,3.649,1.5,3.891,1.917c0.481,0.768,0.481,1.593,0.481,2.36v8.978c0,0.913,0,1.298,0.551,2.303h-4.476
		c0.519-0.948,0.519-1.062,0.519-2.303v-8.769c0-1.328-1.413-2.217-2.755-2.217c-1.587,0-2.482,0.98-3.066,1.596v9.153
		c0,1.269,0.173,1.771,0.618,2.54h-4.785c0.518-0.739,0.69-1.062,0.69-2.54v-7.648c0-0.914,0-1.566-0.448-2.099
		c-0.516-0.618-1.272-1.003-2.066-1.003c-1.344,0-2.271,0.709-3.306,1.566v9.152c0,1.002,0,1.539,0.759,2.571h-4.892
		c0.552-0.973,0.725-1.332,0.725-2.449v-9.921c0-1.626-0.345-2.365-0.725-3.131H251.683z"/>
	<path fill="#153F90" d="M285.49,112.676c-1.102,0.32-2.308,0.677-3.995,0.677c-5.751,0-7.197-3.983-7.197-7.468
		c0-5.138,2.999-7.975,7.231-7.975c2.963,0,5.305,1.535,5.82,4.49c0.24,1.239,0.205,1.889,0.205,3.574l-9.502,0.175
		c0.102,1.061,0.412,4.665,4.407,4.665c1.447,0,2.686-0.416,4.718-1.212L285.49,112.676z M285.318,104.17
		c0.104-2.803-1.102-4.399-3.58-4.399c-2.583,0-3.514,1.771-3.789,4.399H285.318z"/>
	<path fill="#153F90" d="M297.33,98.439c0.725-0.32,1.585-0.705,2.757-0.705c1.617,0,4.543,1.15,4.543,4.045v8.917
		c0,1.241,0.141,1.626,0.656,2.658h-4.613c0.551-1.242,0.551-1.805,0.551-2.571v-8.531c0-0.529-0.621-2.007-3.272-2.007
		c-1.688,0-2.377,0.411-3.203,0.884v8.801c0,1.619,0.068,2.125,0.31,3.424h-4.58c0.758-1.477,0.894-3.131,0.894-4.727v-8.293
		c0-0.417-0.308-1.742-0.482-2.481h3.892l-0.034,3.013L297.33,98.439z"/>
	<path fill="#153F90" d="M318.503,98.237v1.95h-4.578v5.55c0,3.48,0,3.864,0.172,4.276c0.206,0.532,1.138,1.273,2.274,1.273
		c0.586,0,1.101-0.089,2.34-0.325l-1.963,2.155c-1.168,0.206-1.96,0.325-2.96,0.325c-2.722,0-3.442-1.714-3.442-2.538
		c0-0.655,0.101-1.185,0.101-2.155v-8.562h-2.342c0.519-0.534,1.068-1.004,5.82-5.199v3.249H318.503z"/>
	<path fill="#153F90" d="M348.113,105.116c0,6.729-6.577,8.474-8.779,8.474c-3.516,0-8.025-1.98-8.025-7.355
		c0-6.432,5.061-7.762,8.025-8.53C344.258,97.559,348.113,100.537,348.113,105.116z M344.876,105.737
		c0-3.135-2.305-5.935-5.508-5.935c-2.345,0-4.377,1.946-4.377,5.191c0,4.433,3.447,6.616,6.752,6.384
		C342.948,110.545,344.876,109.072,344.876,105.737z"/>
	<path fill="#153F90" d="M359.54,100.212h-3.926v9.39c0,2.126,0.446,2.865,0.966,3.695l-5.512,0.056
		c0.828-1.298,1.001-2.364,1.001-3.983v-9.158l-1.791-0.059c0.859-0.946,1.102-1.239,1.791-2.183v-0.919
		c0-1.623,0-6.047,5.923-6.047c1.307,0,2.339,0.205,3.271,0.384c-0.346,1.476-0.45,1.885-0.691,3.306
		c-0.411-0.739-1.065-1.507-2.614-1.507c-2.344,0-2.344,2.125-2.344,3.042v1.951h3.926V100.212z"/>
	<path fill="#153F90" d="M387.46,91.209l-1.961,3.426c-2.897-1.125-4.405-1.418-7.13-1.329v7.739h8.094l-2.203,3.097
		c-2.962-0.739-3.926-0.857-5.891-0.976v8.089c3.306,0,5.131,0,10.609-1.591l-1.895,3.69h-13.532
		c0.444-1.298,0.963-2.864,0.963-5.697V96.82c0-1.507-0.241-3.694-0.963-5.611H387.46z"/>
	<path fill="#153F90" d="M406.053,91.093c-0.278,1.029-0.62,2.242-0.62,4.722v14.967c0,0.709,0,1.002,0.62,2.571h-4.031v-2.571
		c-1.308,1.239-2.686,2.571-5.264,2.571c-3.484,0-6.789-2.596-6.789-6.555c0-4.429,4.548-8.562,9.608-8.562
		c1.1,0,1.723,0.145,2.444,0.325v-2.746c0-2.008-0.375-2.983-0.761-3.896L406.053,91.093z M402.022,101.247
		c-0.585-0.473-1.515-1.182-3.341-1.182c-1.442,0-2.372,0.446-3.41,0.98c-0.718,1.06-1.478,2.239-1.478,4.513
		c0,5.347,5.338,5.522,6.024,5.522c1.171,0,1.755-0.354,2.204-0.65V101.247z"/>
	<path fill="#153F90" d="M415.032,97.88c-0.621,0.857-0.86,1.18-0.86,2.569v8.506c0.483,2.034,2.443,2.034,2.827,2.034
		c1.476,0,2.58-0.591,3.371-1.06v-8.417c0-1.534-0.031-2.305-0.687-3.571l5.062-0.062c-0.514,0.943-0.898,1.655-0.898,2.867v8.973
		c0,2.042,0.385,3.07,0.621,3.633h-4.238c0.141-1.416,0.141-1.683,0.141-3.131l-2.719,2.542c-0.518,0.232-1.518,0.616-2.583,0.616
		c-0.62,0-2.96-0.232-4.408-2.835l0.07-8.735c0.032-2.187-0.344-2.953-0.933-3.931H415.032z"/>
	<path fill="#153F90" d="M440.786,101.451c-0.795-0.704-1.76-1.562-3.857-1.562c-3.995,0-5.133,3.096-5.133,5.375
		c0,4.513,3.379,5.754,5.685,5.754c1.545,0,2.821-0.323,3.857-0.589l-1.862,2.482c-0.823,0.205-1.614,0.385-2.926,0.385
		c-4.785,0-8.368-3.075-8.368-7.267c0-2.125,1.173-8.121,9.435-8.121c1.583,0,2.551,0.148,3.476,0.298L440.786,101.451z"/>
	<path fill="#153F90" d="M445.122,98.473l2.271-0.415c0.623-0.116,1.346-0.116,1.587-0.116c3.337,0,4.747,1.625,5.129,2.185
		c0.519,0.796,0.519,1.212,0.519,2.244l0.137,8.828c0,0.35,0.313,1.242,0.654,2.155h-4.065v-2.155
		c-1.305,0.823-1.687,1.094-2.965,2.007c-0.204,0.03-0.892,0.148-1.441,0.148c-1.414,0-4.547-1.062-4.547-3.576
		c0-2.653,3.992-4.163,6.339-4.954c1.719-0.564,1.892-0.682,2.614-1.128v-0.795c0-0.766-0.063-1.003-0.205-1.239
		c-0.48-0.769-1.927-1.474-3.583-1.474c-1.341,0-2.305,0.441-3.407,1.002L445.122,98.473z M451.354,106.594h-4.611
		c-0.382,0.766-0.653,1.412-0.653,2.33c0,1.709,1.618,2.273,3.405,2.273c0.828,0,1.277-0.118,1.859-0.266V106.594z"/>
	<path fill="#153F90" d="M468.364,98.237v1.95h-4.579v5.55c0,3.48,0,3.864,0.173,4.276c0.199,0.532,1.133,1.273,2.268,1.273
		c0.587,0,1.101-0.089,2.342-0.325l-1.964,2.155c-1.173,0.206-1.965,0.325-2.96,0.325c-2.72,0-3.442-1.714-3.442-2.538
		c0-0.655,0.1-1.185,0.1-2.155v-8.562h-2.337c0.514-0.534,1.064-1.004,5.82-5.199v3.249H468.364z"/>
	<path fill="#153F90" d="M475.726,97.852c-0.445,0.739-0.854,1.387-0.854,3.87v7.35c0,2.804,0.546,3.604,1.027,4.281h-5.543
		c0.791-1.032,1.068-1.416,1.068-4.458v-7.146c0-1.978-0.245-2.689-0.932-3.896H475.726z M475.662,93.571
		c0,0.857-0.728,2.216-2.451,2.216c-1.337,0-2.441-0.891-2.441-2.278c0-1.535,1.341-2.212,2.379-2.212
		C474.698,91.298,475.662,92.539,475.662,93.571z"/>
	<path fill="#153F90" d="M495.455,105.116c0,6.729-6.575,8.474-8.779,8.474c-3.516,0-8.022-1.98-8.022-7.355
		c0-6.432,5.062-7.762,8.022-8.53C491.599,97.559,495.455,100.537,495.455,105.116z M492.218,105.737
		c0-3.135-2.305-5.935-5.511-5.935c-2.337,0-4.369,1.946-4.369,5.191c0,4.433,3.447,6.616,6.752,6.384
		C490.29,110.545,492.218,109.072,492.218,105.737z"/>
	<path fill="#153F90" d="M505.264,98.439c0.723-0.32,1.587-0.705,2.756-0.705c1.622,0,4.541,1.15,4.541,4.045v8.917
		c0,1.241,0.142,1.626,0.659,2.658h-4.614c0.555-1.242,0.555-1.805,0.555-2.571v-8.531c0-0.529-0.622-2.007-3.273-2.007
		c-1.691,0-2.379,0.411-3.206,0.884v8.801c0,1.619,0.072,2.125,0.31,3.424h-4.58c0.761-1.477,0.896-3.131,0.896-4.727v-8.293
		c0-0.417-0.311-1.742-0.482-2.481h3.892l-0.036,3.013L505.264,98.439z"/>
</g>
<path fill="#153F90" d="M70.339,114.621c0.976,0.978,9.375-10.416,33.363-9.583c23.99,0.833,26.335,4.794,30.175,6.266
	c2.74,1.051,8.325-4.097-4.971-8.816c-13.296-4.719-25.543-4.049-38.499-1.058C78.537,104.17,69.801,114.084,70.339,114.621z"/>
<path fill="#153F90" d="M69.93,113.362c0.85,0.55,10.734-16.71,31.738-17.684c18.844-0.875,23.745,3.119,29.677,4.904
	c6.007,1.809,8.533-3.691-1.004-6.468c-16.162-4.703-28.413-4.435-39.13-0.458C78.492,98.374,68.789,112.624,69.93,113.362z"/>
<path fill="#153F90" d="M69.285,113.416c0.349-0.304-2.295-7.214-12.989-14.06c-10.694-6.846-27.971-9.354-40.475-8.904
	C8.03,90.732,5.7,92.88,6.265,94.857c0.501,1.757,4.067,1.369,6.569,1.196c7.287-0.499,11.071-1.034,23.597,0.359
	c18.127,2.016,26.173,11.188,30.936,15.2C68.037,112.176,68.936,113.723,69.285,113.416z"/>
<path fill="#153F90" d="M69.38,114.761c0.499-0.85-15.661-14.798-37.087-15.3C8.599,98.904,5.089,100.856,6.02,103.77
	c0.986,3.087,8.261-0.719,19.729-0.531c11.497,0.188,17.342,0.499,27.604,4.21C64.176,111.362,69.076,115.279,69.38,114.761z"/>
<path fill="#153F90" d="M73.407,57.302c-7.891-3.628-8.332-7.873-14.454-14.183c-6.068-6.255-8.182-1.389-3.426,4.522
	c4.756,5.911,6.752,12.481,7.111,20.336c0,0,0.115,7.697-6.254,17.344c-3.662,5.547,0.755,6.973,4.421,2.465
	c3.667-4.507,4.964-9.376,11.343-9.029c4.907,0.269,7.638,9.135,10.707,13.93c3.067,4.796,6.668,0.538,1.74-8.26
	c-4.933-8.795-4.449-11.899-1.598-15.945c3.498-4.962,16.101-5.569,16.473-9.214c0.27-2.652-1.93-3.482-7.946-2.128
	C82.532,59.164,81.297,60.931,73.407,57.302z"/>
<circle fill="#153F90" cx="77.828" cy="48.275" r="7.224"/>
<path fill="#FBAE17" d="M123.043,57.993c4.656-0.683,6.166-1.226,13.189-5.453c7.022-4.226,8.205,0.232,2.734,4.714
	c-5.472,4.484-10.441,8.517-10.405,13.576c0.038,5.058,1.411,7.608,5.374,17.633c2.279,5.762-2.2,6.334-4.682,1.522
	c-2.482-4.814-4.015-9.989-8.443-10.532c-7.069-0.863-8.937,6.276-12.656,10.065c-3.718,3.787-5.415-1.494,0-8.682
	c5.656-7.509,6.08-9.215,3.997-14.478c-2.08-5.263-12.204-8.509-13.266-11.561c-0.815-2.348,0.016-4.354,7.658-0.421
	C114.184,58.309,123.043,57.993,123.043,57.993z"/>
<path fill="#FBAE17" d="M114.476,51.388c1.367,3.458,5.28,5.154,8.741,3.785c3.457-1.368,5.152-5.281,3.787-8.741
	c-1.371-3.458-5.284-5.154-8.744-3.785C114.803,44.014,113.108,47.929,114.476,51.388z"/>
<path fill="#D71921" d="M28.932,56.786c6.775-0.783,9.483-5.638,15.847-10.737c6.396-5.125,8.206-0.172,2.962,4.574
	c-5.245,4.747-8.173,11.993-9.65,19.172c0,0-1.232,7.07,3.218,16.888c2.561,5.644-1.714,6.305-4.429,1.622
	c-2.716-4.688-3.972-9.709-9.123-9.975c-7.11-0.368-8.948,7.018-12.475,10.984c-3.528,3.966-5.621-1.289-0.205-9.225
	c5.297-7.764,5.728-9.259,3.39-14.414c-2.338-5.154-12.623-8.192-13.818-10.895c-1.005-2.273-0.199-4.35,7.628-0.796
	C20.1,57.537,25.342,57.201,28.932,56.786z"/>
<circle fill="#D71921" cx="26.185" cy="47.827" r="6.735"/>
<path fill="#153F90" d="M70.157,115.846c0.08-1.206,22.03-10.421,44.558-6.308c19.754,3.605,22.258,6.802,19.953,9.016
	c-2.482,2.386-11.249-4.836-29.935-5.681C81.733,111.831,70.063,117.247,70.157,115.846z"/>
<path fill="#153F90" d="M67.403,115.209"/>
<path fill="#153F90" d="M31.78,106.444c-18.063,0.205-27.29,1.615-26.483,5.029c0.845,3.58,12.539-0.343,26.598-0.435
	c24.157-0.155,37.392,5.29,37.64,4.776C69.782,115.299,51.391,106.223,31.78,106.444z"/>
<polygon fill="#FBAE17" points="50.236,4.281 59.824,12.895 72.354,9.881 67.125,21.662 73.863,32.648 61.044,31.314 52.677,41.118 
	49.985,28.514 38.074,23.586 49.23,17.13 "/>
</svg>
